<svg width="20" height="21" viewBox="0 0 20 21" fill="none" xmlns="http://www.w3.org/2000/svg">
<path d="M8.91797 18.8242L1.85938 12.2344C1.69531 12.082 1.53906 11.918 1.39453 11.75H4.79297C5.67578 11.75 6.47266 11.2187 6.8125 10.4023L7.22266 9.41797L9.14844 13.6953C9.29688 14.0273 9.62109 14.2422 9.98438 14.2461C10.3477 14.25 10.6797 14.0508 10.8438 13.7266L12.5 10.4102L12.5664 10.543C12.9375 11.2852 13.6953 11.7539 14.5234 11.7539H18.6055C18.4609 11.9219 18.3047 12.0859 18.1406 12.2383L11.082 18.8242C10.7891 19.0977 10.4023 19.25 10 19.25C9.59766 19.25 9.21094 19.0977 8.91797 18.8242ZM19.6758 9.875H14.5195C14.4023 9.875 14.293 9.80859 14.2383 9.70312L13.332 7.89453C13.1719 7.57812 12.8477 7.375 12.4922 7.375C12.1367 7.375 11.8125 7.57422 11.6523 7.89453L10.0352 11.1289L8.04297 6.67969C7.89062 6.33984 7.54688 6.12109 7.17578 6.12891C6.80469 6.13672 6.46875 6.35937 6.32422 6.70703L5.08203 9.6875C5.03516 9.80469 4.91797 9.87891 4.79297 9.87891H0.625C0.523438 9.87891 0.429688 9.89453 0.339844 9.92187C0.117188 9.29687 0 8.63281 0 7.95703V7.73047C0 5 1.97266 2.67187 4.66406 2.22266C6.44531 1.92578 8.25781 2.50781 9.53125 3.78125L10 4.25L10.4688 3.78125C11.7422 2.50781 13.5547 1.92578 15.3359 2.22266C18.0273 2.67187 20 5 20 7.73047V7.95703C20 8.61719 19.8906 9.26562 19.6758 9.875Z" fill="#4B7EFF"/>
</svg>
