<svg width="177" height="55" viewBox="0 0 177 55" fill="none" xmlns="http://www.w3.org/2000/svg">
<path d="M18.1644 17.72L20.7324 26L26.2524 17.72H30.7884L27.7404 35H23.3964L25.1244 25.256L21.4284 31.064H18.2844L16.6524 25.256L14.9244 35H10.6044L13.6524 17.72H18.1644ZM36.0791 35.336C32.7511 35.336 31.0871 34.184 31.0871 31.88C31.0871 31.56 31.1191 31.216 31.1831 30.848L31.6871 27.872C31.9591 26.336 32.6631 25.16 33.7991 24.344C34.9511 23.512 36.4711 23.096 38.3591 23.096C41.5751 23.096 43.1831 24.312 43.1831 26.744C43.1831 27.096 43.1511 27.48 43.0871 27.896L42.7991 29.6H35.4791L35.3831 30.152C35.3511 30.344 35.3351 30.52 35.3351 30.68C35.3351 31.56 35.8551 32 36.8951 32C37.2791 32 37.6071 31.88 37.8791 31.64C38.1511 31.4 38.3111 31.12 38.3591 30.8L42.3431 30.848C41.8151 33.84 39.7271 35.336 36.0791 35.336ZM38.9591 28.136C39.0231 27.864 39.0551 27.616 39.0551 27.392C39.0551 27.152 38.9511 26.912 38.7431 26.672C38.5351 26.432 38.1991 26.312 37.7351 26.312C37.2871 26.312 36.8711 26.464 36.4871 26.768C36.1191 27.072 35.8631 27.528 35.7191 28.136H38.9591ZM55.7293 31.304C55.7293 31.72 55.9373 31.928 56.3533 31.928C56.7853 31.928 57.1453 31.848 57.4333 31.688L57.3133 34.4C56.5453 35.024 55.6813 35.336 54.7213 35.336C52.9613 35.336 51.9853 34.696 51.7933 33.416C50.9933 34.696 49.8173 35.336 48.2653 35.336C45.6413 35.336 44.3293 34.208 44.3293 31.952C44.3293 31.568 44.3693 31.144 44.4493 30.68L44.9533 27.872C45.2093 26.432 45.7933 25.288 46.7053 24.44C47.6333 23.576 48.9133 23.144 50.5453 23.144C51.5533 23.144 52.3533 23.36 52.9453 23.792L54.1693 16.784H58.2733L55.7533 31.016C55.7373 31.112 55.7293 31.208 55.7293 31.304ZM48.6253 30.152C48.5933 30.296 48.5773 30.496 48.5773 30.752C48.5773 31.008 48.6973 31.264 48.9373 31.52C49.1773 31.76 49.5773 31.88 50.1373 31.88C50.7133 31.88 51.2093 31.656 51.6253 31.208L52.3453 27.176C52.1693 26.776 51.7533 26.576 51.0973 26.576C49.8653 26.576 49.1453 27.168 48.9373 28.352L48.6253 30.152Z" fill="black"/>
<path d="M69.918 35.8242L62.8594 29.2344C62.6953 29.082 62.5391 28.918 62.3945 28.75H65.793C66.6758 28.75 67.4727 28.2187 67.8125 27.4023L68.2227 26.418L70.1484 30.6953C70.2969 31.0273 70.6211 31.2422 70.9844 31.2461C71.3477 31.25 71.6797 31.0508 71.8438 30.7266L73.5 27.4102L73.5664 27.543C73.9375 28.2852 74.6953 28.7539 75.5234 28.7539H79.6055C79.4609 28.9219 79.3047 29.0859 79.1406 29.2383L72.082 35.8242C71.7891 36.0977 71.4023 36.25 71 36.25C70.5977 36.25 70.2109 36.0977 69.918 35.8242ZM80.6758 26.875H75.5195C75.4023 26.875 75.293 26.8086 75.2383 26.7031L74.332 24.8945C74.1719 24.5781 73.8477 24.375 73.4922 24.375C73.1367 24.375 72.8125 24.5742 72.6523 24.8945L71.0352 28.1289L69.043 23.6797C68.8906 23.3398 68.5469 23.1211 68.1758 23.1289C67.8047 23.1367 67.4688 23.3594 67.3242 23.707L66.082 26.6875C66.0352 26.8047 65.918 26.8789 65.793 26.8789H61.625C61.5234 26.8789 61.4297 26.8945 61.3398 26.9219C61.1172 26.2969 61 25.6328 61 24.957V24.7305C61 22 62.9727 19.6719 65.6641 19.2227C67.4453 18.9258 69.2578 19.5078 70.5312 20.7812L71 21.25L71.4688 20.7812C72.7422 19.5078 74.5547 18.9258 76.3359 19.2227C79.0273 19.6719 81 22 81 24.7305V24.957C81 25.6172 80.8906 26.2656 80.6758 26.875Z" fill="#4B7EFF"/>
<path d="M88.3447 30.08C88.3447 31.184 89.1367 31.736 90.7207 31.736C92.3207 31.736 93.1207 31.24 93.1207 30.248C93.1207 29.72 92.8487 29.288 92.3047 28.952C91.7607 28.616 91.0967 28.336 90.3127 28.112C89.5447 27.888 88.7687 27.632 87.9847 27.344C87.2167 27.04 86.5607 26.576 86.0167 25.952C85.4727 25.312 85.2007 24.52 85.2007 23.576C85.2007 19.56 87.7847 17.552 92.9527 17.552C94.8407 17.552 96.2647 17.912 97.2247 18.632C98.2007 19.336 98.6887 20.32 98.6887 21.584C98.6887 22.048 98.6247 22.496 98.4967 22.928C98.3847 23.344 98.2647 23.64 98.1367 23.816L97.9447 24.104H93.6967C94.0487 23.736 94.2247 23.272 94.2247 22.712C94.2247 21.672 93.5447 21.152 92.1847 21.152C90.4727 21.152 89.6167 21.696 89.6167 22.784C89.6167 23.328 89.8887 23.76 90.4327 24.08C90.9767 24.4 91.6327 24.656 92.4007 24.848C93.1847 25.024 93.9687 25.248 94.7527 25.52C95.5367 25.792 96.2007 26.248 96.7447 26.888C97.2887 27.512 97.5607 28.328 97.5607 29.336C97.5607 31.368 96.9527 32.88 95.7367 33.872C94.5207 34.848 92.6487 35.336 90.1207 35.336C87.5927 35.336 85.8647 34.888 84.9367 33.992C84.2487 33.32 83.9047 32.392 83.9047 31.208C83.9047 30.76 83.9527 30.272 84.0487 29.744L84.1207 29.36H88.4407L88.3927 29.648C88.3607 29.808 88.3447 29.952 88.3447 30.08ZM107.723 23.144C109.355 23.144 110.483 23.576 111.107 24.44C111.555 25.032 111.779 25.784 111.779 26.696C111.779 27.064 111.739 27.456 111.659 27.872L111.179 30.68C110.907 32.2 110.323 33.36 109.427 34.16C108.531 34.944 107.411 35.336 106.067 35.336C104.723 35.336 103.787 34.976 103.259 34.256L101.963 41.672H97.8832L101.099 23.456H104.795L104.675 24.104C105.427 23.464 106.443 23.144 107.723 23.144ZM105.227 31.88C105.675 31.88 106.091 31.736 106.475 31.448C106.859 31.16 107.099 30.728 107.195 30.152L107.507 28.352C107.539 28.192 107.555 27.992 107.555 27.752C107.555 27.512 107.451 27.256 107.243 26.984C107.035 26.712 106.675 26.576 106.163 26.576C105.331 26.576 104.787 26.776 104.531 27.176L103.811 31.208C104.035 31.656 104.507 31.88 105.227 31.88ZM118.071 35.336C114.743 35.336 113.079 34.184 113.079 31.88C113.079 31.56 113.111 31.216 113.175 30.848L113.679 27.872C113.951 26.336 114.655 25.16 115.791 24.344C116.943 23.512 118.463 23.096 120.351 23.096C123.567 23.096 125.175 24.312 125.175 26.744C125.175 27.096 125.143 27.48 125.079 27.896L124.791 29.6H117.471L117.375 30.152C117.343 30.344 117.327 30.52 117.327 30.68C117.327 31.56 117.847 32 118.887 32C119.271 32 119.599 31.88 119.871 31.64C120.143 31.4 120.303 31.12 120.351 30.8L124.335 30.848C123.807 33.84 121.719 35.336 118.071 35.336ZM120.951 28.136C121.015 27.864 121.047 27.616 121.047 27.392C121.047 27.152 120.943 26.912 120.735 26.672C120.527 26.432 120.191 26.312 119.727 26.312C119.279 26.312 118.863 26.464 118.479 26.768C118.111 27.072 117.855 27.528 117.711 28.136H120.951ZM134.194 27.632C134.194 26.944 133.858 26.6 133.186 26.6C132.53 26.6 131.986 26.848 131.554 27.344L130.21 35H126.13L128.17 23.456H131.962L131.698 24.872C132.642 23.704 133.834 23.12 135.274 23.12C136.714 23.12 137.65 23.472 138.082 24.176C138.354 24.624 138.49 25.136 138.49 25.712C138.49 26.288 138.45 26.824 138.37 27.32L137.722 31.016C137.706 31.112 137.698 31.2 137.698 31.28C137.698 31.712 137.938 31.928 138.418 31.928C138.786 31.928 139.114 31.848 139.402 31.688L139.282 34.4C138.53 35.024 137.674 35.336 136.714 35.336C134.538 35.336 133.45 34.424 133.45 32.6C133.45 32.28 133.482 31.936 133.546 31.568L134.122 28.376C134.17 28.088 134.194 27.84 134.194 27.632ZM152.809 25.952C152.809 26.48 152.649 26.968 152.329 27.416H148.393C148.521 27.32 148.585 27.16 148.585 26.936C148.585 26.712 148.457 26.536 148.201 26.408C147.945 26.264 147.617 26.192 147.217 26.192C146.017 26.192 145.417 26.56 145.417 27.296C145.417 27.584 145.641 27.792 146.089 27.92C146.537 28.048 147.081 28.152 147.721 28.232C148.361 28.312 149.001 28.432 149.641 28.592C150.281 28.736 150.825 29.032 151.273 29.48C151.721 29.928 151.945 30.528 151.945 31.28C151.945 32.608 151.409 33.616 150.337 34.304C149.281 34.992 147.737 35.336 145.705 35.336C143.673 35.336 142.249 35.008 141.433 34.352C140.793 33.84 140.473 33.136 140.473 32.24C140.473 31.984 140.497 31.72 140.545 31.448L144.553 31.4C144.521 31.624 144.649 31.824 144.937 32C145.241 32.16 145.681 32.24 146.257 32.24C146.833 32.24 147.249 32.184 147.505 32.072C147.761 31.944 147.889 31.712 147.889 31.376C147.889 31.152 147.665 31 147.217 30.92C146.769 30.824 146.217 30.744 145.561 30.68C144.921 30.616 144.273 30.512 143.617 30.368C142.977 30.224 142.433 29.92 141.985 29.456C141.537 28.992 141.313 28.384 141.313 27.632C141.313 26.176 141.873 25.056 142.993 24.272C144.129 23.488 145.761 23.096 147.889 23.096C151.169 23.096 152.809 24.048 152.809 25.952ZM158.829 35.336C155.501 35.336 153.837 34.184 153.837 31.88C153.837 31.56 153.869 31.216 153.933 30.848L154.437 27.872C154.709 26.336 155.413 25.16 156.549 24.344C157.701 23.512 159.221 23.096 161.109 23.096C164.325 23.096 165.933 24.312 165.933 26.744C165.933 27.096 165.901 27.48 165.837 27.896L165.549 29.6H158.229L158.133 30.152C158.101 30.344 158.085 30.52 158.085 30.68C158.085 31.56 158.605 32 159.645 32C160.029 32 160.357 31.88 160.629 31.64C160.901 31.4 161.061 31.12 161.109 30.8L165.093 30.848C164.565 33.84 162.477 35.336 158.829 35.336ZM161.709 28.136C161.773 27.864 161.805 27.616 161.805 27.392C161.805 27.152 161.701 26.912 161.493 26.672C161.285 26.432 160.949 26.312 160.485 26.312C160.037 26.312 159.621 26.464 159.237 26.768C158.869 27.072 158.613 27.528 158.469 28.136H161.709Z" fill="black"/>
</svg>
